<svg width="1722" height="650" viewBox="0 0 1722 650" fill="none" xmlns="http://www.w3.org/2000/svg">
<path fill-rule="evenodd" clip-rule="evenodd" d="M907.831 540.883H863V101.708H1128.83V141.347H907.831V294.24H1113.05V333.25H907.831V540.883ZM1221.02 540.882H1178.72V250.825H1221.02V540.882ZM1309.42 406.864H1551.26H1551.89V386.73C1551.89 307.452 1503.9 242.646 1412.35 242.646C1329.63 242.646 1265.22 308.082 1265.22 395.539C1265.22 482.996 1329.63 548.432 1416.14 548.432C1464.12 548.432 1507.06 530.186 1541.16 486.771L1509.59 462.233C1493.17 488.659 1459.7 512.568 1416.14 512.568C1356.15 512.568 1310.69 465.379 1309.42 406.864ZM1412.35 278.51C1472.96 278.51 1506.43 318.778 1508.96 373.517H1310.05C1313.84 323.811 1355.52 278.51 1412.35 278.51ZM1221.02 165.255H1178.72V207.411H1221.02V165.255ZM1721.12 250.825V286.06H1639.03V505.647H1721.12V540.882H1597.36V540.252H1596.73V207.411V169.03V165.255H1639.03V169.03V250.825H1721.12Z" fill="white"/>
<path fill-rule="evenodd" clip-rule="evenodd" d="M58.6578 380.79C53.293 354.708 51.5048 326.848 53.8891 298.988C68.7912 149.61 202.91 39.3554 353.124 53.5818C376.967 55.9529 399.618 61.2878 421.077 68.9938C429.423 53.5818 440.152 38.7626 452.67 25.129C423.462 12.6808 391.869 4.97484 358.488 1.41824C179.067 -15.1793 18.7201 115.822 2.02972 293.653C-0.354615 320.327 0.24147 346.409 3.81798 371.305C13.9652 372.933 24.1123 374.739 34.1608 376.528L34.1619 376.528L34.1628 376.528C42.4125 377.997 50.5957 379.454 58.6578 380.79ZM573.014 137.251L573.676 137.163L573.08 137.756L573.014 137.251ZM573.014 137.251L444.326 154.353C427.636 95.0762 480.091 13.2743 555.794 6.75381L573.014 137.251ZM666.068 392.053V327.441L666.664 326.848C623.746 323.292 583.809 313.215 559.965 274.092C546.851 252.16 542.083 227.263 546.851 202.367C557.581 147.24 605.864 108.117 655.935 113.452V222.521H593.346C592.75 249.196 606.46 270.535 632.091 276.463C646.526 280.154 661.531 281.291 676.514 282.427C683.187 282.933 689.856 283.438 696.469 284.169H711.967V439.474L666.068 392.053ZM489.625 232.599C489.625 218.965 478.895 208.888 465.185 208.888C452.071 208.888 441.342 220.15 441.342 233.191C441.342 246.232 452.071 256.309 465.185 256.309C478.895 256.309 489.625 245.64 489.625 232.599ZM30.6403 409.836L158.799 431.768C156.414 493.416 83.0957 555.657 7.98905 540.245L30.0442 410.428L30.6403 409.836ZM300.67 595.964C418.099 607.227 525.394 542.615 573.677 443.03L629.113 448.365C576.061 576.996 442.538 662.354 295.901 648.128C221.391 641.015 155.225 609.598 104.558 562.177C120.056 553.285 134.958 542.615 148.072 530.76C189.202 566.326 241.658 590.629 300.67 595.964Z" fill="white"/>
</svg>
