<svg width="1721" height="650" viewBox="0 0 1721 650" fill="none" xmlns="http://www.w3.org/2000/svg">
<path fill-rule="evenodd" clip-rule="evenodd" d="M907.612 540.882H862.781V101.708H1128.61V141.346H907.612V294.24H1112.83V333.249H907.612V540.882ZM1220.8 540.881H1178.5V250.824H1220.8V540.881ZM1309.2 406.864H1551.04H1551.67V386.73C1551.67 307.452 1503.68 242.645 1412.13 242.645C1329.41 242.645 1265 308.081 1265 395.539C1265 482.996 1329.41 548.432 1415.92 548.432C1463.9 548.432 1506.84 530.185 1540.94 486.771L1509.37 462.233C1492.95 488.659 1459.48 512.568 1415.92 512.568C1355.93 512.568 1310.47 465.379 1309.2 406.864ZM1412.13 278.509C1472.74 278.509 1506.21 318.777 1508.74 373.517H1309.83C1313.62 323.811 1355.3 278.509 1412.13 278.509ZM1220.8 165.255H1178.5V207.411H1220.8V165.255ZM1720.9 250.825V286.059H1638.81V505.647H1720.9V540.881H1597.14V540.252H1596.51V207.411V169.03V165.255H1638.81V169.03V250.825H1720.9Z" fill="black"/>
<path fill-rule="evenodd" clip-rule="evenodd" d="M58.4385 380.79C53.0738 354.708 51.2855 326.848 53.6699 298.988C68.572 149.61 202.691 39.3554 352.904 53.5818C376.748 55.9529 399.399 61.2878 420.858 68.9938C429.203 53.5818 439.933 38.7626 452.451 25.129C423.242 12.6808 391.65 4.97484 358.269 1.41824C178.848 -15.1793 18.5009 115.822 1.81049 293.653C-0.573853 320.327 0.0222319 346.409 3.59874 371.305C13.7459 372.933 23.8931 374.739 33.9416 376.528L33.9426 376.528L33.9436 376.528C42.1933 377.997 50.3765 379.454 58.4385 380.79ZM572.795 137.251L573.457 137.163L572.861 137.756L572.795 137.251ZM572.795 137.251L444.107 154.353C427.416 95.0762 479.872 13.2743 555.575 6.75381L572.795 137.251ZM665.849 392.053V327.441L666.445 326.848C623.527 323.292 583.59 313.215 559.746 274.092C546.632 252.16 541.864 227.263 546.632 202.367C557.362 147.24 605.645 108.117 655.716 113.452V222.521H593.127C592.531 249.196 606.241 270.535 631.872 276.463C646.307 280.154 661.312 281.291 676.295 282.427C682.968 282.933 689.637 283.438 696.25 284.169H711.748V439.474L665.849 392.053ZM489.406 232.599C489.406 218.965 478.676 208.888 464.966 208.888C451.852 208.888 441.123 220.15 441.123 233.191C441.123 246.232 451.852 256.309 464.966 256.309C478.676 256.309 489.406 245.64 489.406 232.599ZM30.4212 409.836L158.579 431.768C156.195 493.416 82.8766 555.657 7.76996 540.245L29.8251 410.428L30.4212 409.836ZM300.451 595.964C417.88 607.227 525.175 542.615 573.458 443.03L628.894 448.365C575.842 576.996 442.319 662.354 295.682 648.128C221.172 641.015 155.006 609.598 104.339 562.177C119.837 553.285 134.739 542.615 147.853 530.76C188.983 566.326 241.438 590.629 300.451 595.964Z" fill="url(#paint0_linear_1099_369)"/>
<defs>
<linearGradient id="paint0_linear_1099_369" x1="104.337" y1="443.03" x2="524.084" y2="780.164" gradientUnits="userSpaceOnUse">
<stop stop-color="#007186"/>
<stop offset="1" stop-color="#023E49"/>
</linearGradient>
</defs>
</svg>
