<svg width="347" height="100" viewBox="0 0 347 100" fill="none" xmlns="http://www.w3.org/2000/svg">
<path d="M303.76 44.6035V30.7122L311.374 30.9504V10.374L329.834 10.374V30.9504H346.506L346.506 44.8417H329.834L329.834 68.9841C329.834 73.9337 332.96 77.19 337.779 77.19H346.506V96.0766H327.489C317.46 96.0766 311.374 88.001 311.374 75.7572V44.8417L303.76 44.6035Z" fill="black"/>
<path d="M128.725 95.4032V4.22657L191.434 4.22656V21.8106L148.002 21.8106V40.3888L185.311 40.3888V57.3216H148.002V95.4032H128.725Z" fill="black"/>
<path d="M227.497 63.371C227.497 43.5932 243.362 27.6611 262.846 27.6611C282.607 27.6611 298.751 43.4559 298.89 62.959C298.89 64.3324 298.751 67.4803 298.612 68.8538H247.537C248.79 76.5452 254.496 80.2645 262.846 80.2645C268.969 80.2645 274.118 77.655 276.623 73.1226L295.968 77.655C290.54 90.4281 277.597 99.0809 262.846 99.0809C243.362 99.0809 227.497 83.1488 227.497 63.371ZM262.846 45.2414C255.887 45.2414 250.738 49.3617 248.511 55.5423H277.737C275.371 49.3617 269.943 45.2414 262.846 45.2414Z" fill="black"/>
<path d="M198.74 96.0776V32.7051H217.757V96.0776H198.74Z" fill="black"/>
<circle cx="208.249" cy="10.3749" r="9.50867" fill="black"/>
<path d="M49.1638 49.9969C45.2197 54.1491 42.4698 58.9477 41.3304 64.6008C40.0103 71.1359 40.7662 76.4987 44.0365 83.8665C43.9708 83.9596 43.9215 84.102 43.8229 84.1732C36.3785 89.4813 28.578 94.1429 19.8244 96.9914C16.691 98.0103 13.4865 98.6019 10.1559 98.4869C4.21795 98.2787 0.509442 94.5921 0.317717 88.6377C0.175292 84.1732 1.34755 79.9827 2.93065 75.8852C6.14615 67.5753 10.8462 60.1145 16.0775 52.9604C16.7239 52.0785 17.3758 51.2075 18.1865 50.1229H0V0.887897H49.1528V19.036C50.1826 18.2746 50.9715 17.6885 51.7658 17.1023C59.3416 11.5149 67.2407 6.48627 76.1258 3.1886C79.8562 1.8027 83.6743 0.783819 87.706 0.871464C94.0877 1.00841 97.7633 4.67858 97.9222 11.0329C98.0482 16.1711 96.4541 20.9095 94.4985 25.5382C91.6829 32.1993 87.9196 38.3236 83.7729 44.2232C83.3839 44.7765 83.0936 45.012 82.3486 44.6724C70.2919 39.2384 59.3197 40.9584 49.4541 49.7613C49.3555 49.849 49.2405 49.9311 49.1364 50.0133C49.1364 39.8081 49.1364 29.5973 49.1364 19.0579C37.5124 28.2827 27.3783 38.4003 18.3946 49.849C18.7233 49.9531 18.8384 50.0243 18.9589 50.0243C29.0217 50.0188 39.09 50.0024 49.1528 49.9914L49.1638 49.9969Z" fill="black"/>
<path d="M83.1645 45.1266C94.1805 51.0974 100.168 63.7732 97.7411 75.693C95.1775 88.2811 84.9229 97.8181 72.7183 98.9575C60.7656 100.075 48.3199 93.5289 44.2827 83.9208C51.7326 78.5579 58.673 72.5542 65.1862 66.0465C71.6994 59.5443 77.725 52.6148 83.1645 45.1211V45.1266Z" fill="black"/>
</svg>
