<svg width="348" height="100" viewBox="0 0 348 100" fill="none" xmlns="http://www.w3.org/2000/svg">
<path d="M304.738 44.6035V30.7122L312.352 30.9504V10.374L330.811 10.374V30.9504H347.484L347.484 44.8417H330.811L330.811 68.9841C330.811 73.9337 333.937 77.19 338.757 77.19H347.484V96.0766H328.467C318.437 96.0766 312.352 88.001 312.352 75.7572V44.8417L304.738 44.6035Z" fill="white"/>
<path d="M129.703 95.4032V4.22657L192.412 4.22656V21.8106L148.98 21.8106V40.3888L186.289 40.3888V57.3216H148.98V95.4032H129.703Z" fill="white"/>
<path d="M228.475 63.371C228.475 43.5932 244.34 27.6611 263.823 27.6611C283.585 27.6611 299.729 43.4559 299.868 62.959C299.868 64.3324 299.729 67.4803 299.59 68.8538H248.515C249.768 76.5452 255.473 80.2645 263.823 80.2645C269.947 80.2645 275.096 77.655 277.601 73.1226L296.945 77.655C291.518 90.4281 278.575 99.0809 263.823 99.0809C244.34 99.0809 228.475 83.1488 228.475 63.371ZM263.823 45.2414C256.865 45.2414 251.716 49.3617 249.489 55.5423H278.714C276.349 49.3617 270.921 45.2414 263.823 45.2414Z" fill="white"/>
<path d="M199.718 96.0776V32.7051H218.735V96.0776H199.718Z" fill="white"/>
<circle cx="209.227" cy="10.3749" r="9.50867" fill="white"/>
<path d="M50.1416 49.9969C46.1975 54.1491 43.4476 58.9477 42.3082 64.6008C40.988 71.1359 41.744 76.4987 45.0143 83.8665C44.9485 83.9596 44.8992 84.102 44.8006 84.1732C37.3562 89.4813 29.5558 94.1429 20.8021 96.9914C17.6688 98.0103 14.4643 98.6019 11.1337 98.4869C5.19573 98.2787 1.48722 94.5921 1.2955 88.6377C1.15308 84.1732 2.32534 79.9827 3.90844 75.8852C7.12394 67.5753 11.8239 60.1145 17.0553 52.9604C17.7017 52.0785 18.3535 51.2075 19.1643 50.1229H0.977783V0.887897H50.1306V19.036C51.1604 18.2746 51.9492 17.6885 52.7435 17.1023C60.3194 11.5149 68.2185 6.48627 77.1036 3.1886C80.834 1.8027 84.652 0.783819 88.6837 0.871464C95.0654 1.00841 98.7411 4.67858 98.9 11.0329C99.026 16.1711 97.4319 20.9095 95.4763 25.5382C92.6607 32.1993 88.8974 38.3236 84.7506 44.2232C84.3617 44.7765 84.0714 45.012 83.3264 44.6724C71.2696 39.2384 60.2975 40.9584 50.4319 49.7613C50.3333 49.849 50.2182 49.9311 50.1142 50.0133C50.1142 39.8081 50.1142 29.5973 50.1142 19.0579C38.4902 28.2827 28.3561 38.4003 19.3724 49.849C19.7011 49.9531 19.8161 50.0243 19.9366 50.0243C29.9995 50.0188 40.0678 50.0024 50.1306 49.9914L50.1416 49.9969Z" fill="white"/>
<path d="M84.1423 45.1266C95.1583 51.0974 101.146 63.7732 98.7189 75.693C96.1553 88.2811 85.9007 97.8181 73.6961 98.9575C61.7434 100.075 49.2977 93.5289 45.2605 83.9208C52.7104 78.5579 59.6508 72.5542 66.164 66.0465C72.6772 59.5443 78.7028 52.6148 84.1423 45.1211V45.1266Z" fill="white"/>
</svg>
